<?xml version="1.0" encoding="UTF-8" standalone="no"?>
<svg viewBox="0 0 323.5 268.0" version="1.1" xmlns="http://www.w3.org/2000/svg" xmlns:svg="http://www.w3.org/2000/svg">
<style>
text {font-family: "Koppla Electric", monospace;font-size: 20px;font-weight: normal;fill: #000;stroke: none;dominant-baseline: hanging;}
.pagebg {fill: #FFFFFF;stroke: none;}
.wire {fill:none;stroke:#000;stroke-width:3.5;stroke-linecap:round;}
.textpath {fill:#000;stroke:none;}
.dot {fill:#000;}
.kpl0{fill:none;fill-opacity:1;fill-rule:nonzero;opacity:1;stroke:#000000;stroke-dasharray:none;stroke-dashoffset:0;stroke-linecap:round;stroke-linejoin:round;stroke-miterlimit:4;stroke-opacity:1;stroke-width:3.5;}
.kpl1{fill:none;stroke:#000000;stroke-dasharray:none;stroke-linecap:round;stroke-linejoin:miter;stroke-miterlimit:4;stroke-opacity:1;stroke-width:3.5;}
.kpl2{fill:none;stroke:#000000;stroke-dasharray:none;stroke-linecap:square;stroke-linejoin:miter;stroke-miterlimit:4;stroke-opacity:1;stroke-width:3.5;}
.kpl3{color:#000000;display:inline;fill:none;marker:none;overflow:visible;stroke:#000000;stroke-dasharray:none;stroke-dashoffset:0;stroke-linecap:square;stroke-linejoin:round;stroke-miterlimit:4;stroke-opacity:1;stroke-width:3.5;visibility:visible;}
</style>
<rect x="0" y="0" width="323.5" height="268" class="pagebg"/>
<g transform="translate(0, 12)">
<g transform="translate(113, 16.75)"><path d="M26.25 5.25H10.5" class="kpl1"></path><circle r="5.25" cx="5.25" cy="5.25" class="kpl0"></circle></g>
<g transform="translate(140.25, 218)"><path d="M0 14L28 14" class="kpl2"></path><path d="M14 14L14 0" class="kpl1"></path><path d="M4 20L24 20" class="kpl2"></path><path d="M8 26L20 26" class="kpl2"></path></g>
<g transform="translate(244.25, 119.75)rotate(180,13.125,5.25)"><path d="M26.25 5.25H10.5" class="kpl1"></path><circle r="5.25" cx="5.25" cy="5.25" class="kpl0"></circle></g>
<g transform="translate(122.75, 76.5)rotate(90,31.5,7)"><path d="M0 7H14" class="kpl1"></path><path d="m49 7h14" class="kpl1"></path><rect x="14" y="0" width="35" height="14" class="kpl3"></rect></g>
<g transform="translate(122.75, 159.5)rotate(90,31.5,7)"><path d="M0 7H14" class="kpl1"></path><path d="m49 7h14" class="kpl1"></path><rect x="14" y="0" width="35" height="14" class="kpl3"></rect></g>
<path d="M139.25 22 L154.25 22L154.25 52" class="wire"/>
<path d="M154.25 115 L154.25 135" class="wire"/>
<path d="M154.25 198 L154.25 218" class="wire"/>
<path d="M154.25 115 L154.25 125L229.25 125L229.25 125L244.25 125" class="wire"/>
<circle cx="154.25" cy="125" r="5" class="dot"/>
<path d="M21.020 30.600L21.020 19.600L23.100 19.600C23.640 19.600 24 19.240 24 18.700C24 18.160 23.640 17.800 23.100 17.800L17.100 17.800C16.560 17.800 16.200 18.160 16.200 18.700C16.200 19.240 16.560 19.600 17.100 19.600L19.180 19.600L19.180 30.600L17.100 30.600C16.560 30.600 16.200 30.960 16.200 31.500C16.200 32.040 16.560 32.400 17.100 32.400L23.100 32.400C23.640 32.400 24 32.040 24 31.500C24 30.960 23.640 30.600 23.100 30.600ZM27.200 19.160L27.200 31.700C27.200 32.320 27.480 32.600 28.100 32.600C28.720 32.600 29 32.320 29 31.700L29 20.400L33.080 31.600C33.320 32.260 33.740 32.600 34.520 32.600C35.480 32.600 36 32.080 36 31.040L36 18.500C36 17.880 35.720 17.600 35.100 17.600C34.480 17.600 34.200 17.880 34.200 18.500L34.200 29.800L30.120 18.600C29.880 17.940 29.460 17.600 28.680 17.600C27.720 17.600 27.200 18.120 27.200 19.160ZM44.600 23.500C44.600 24.440 45.360 25.200 46.300 25.200C47.240 25.200 48 24.440 48 23.500C48 22.560 47.240 21.800 46.300 21.800C45.360 21.800 44.600 22.560 44.600 23.500ZM44.600 30.900C44.600 31.840 45.360 32.600 46.300 32.600C47.240 32.600 48 31.840 48 30.900C48 29.960 47.240 29.200 46.300 29.200C45.360 29.200 44.600 29.960 44.600 30.900ZM55.300 30.500C55.920 30.500 56.200 30.220 56.200 29.600L56.200 26.700L59.100 26.700C59.720 26.700 60 26.420 60 25.800C60 25.180 59.720 24.900 59.100 24.900L56.200 24.900L56.200 22.000C56.200 21.380 55.920 21.100 55.300 21.100C54.680 21.100 54.400 21.380 54.400 22.000L54.400 24.900L51.500 24.900C50.880 24.900 50.600 25.180 50.600 25.800C50.600 26.420 50.880 26.700 51.500 26.700L54.400 26.700L54.400 29.600C54.400 30.220 54.680 30.500 55.300 30.500ZM63.420 31.980C64.320 32.380 65.700 32.600 66.840 32.600C70.040 32.600 71.800 30.880 71.800 28.320C71.800 26.300 70.940 24.680 68.920 24.520C70.460 24.260 71.140 22.780 71.140 21.240C71.140 18.520 68.840 17.600 66.500 17.600C65.380 17.600 64.280 17.800 63.740 18.180C63.240 18.520 63.120 19.040 63.340 19.440C63.580 19.920 64.100 20.100 64.500 19.880C65.120 19.540 65.740 19.400 66.480 19.400C67.760 19.400 69.340 19.820 69.340 21.420C69.340 23.340 67.120 23.860 65.740 23.860C64.940 23.860 64.600 24.120 64.600 24.740C64.600 25.440 65.020 25.720 65.500 25.660C67.200 25.560 70 25.800 70 27.880C70 29.820 68.760 30.800 66.840 30.800C65.980 30.800 65 30.580 64.280 30.280C63.580 29.980 63.120 30.240 62.900 30.720C62.660 31.260 62.880 31.760 63.420 31.980ZM80.600 30.900C80.600 31.840 81.360 32.600 82.300 32.600C83.240 32.600 84 31.840 84 30.900C84 29.960 83.240 29.200 82.300 29.200C81.360 29.200 80.600 29.960 80.600 30.900ZM87.420 31.980C88.320 32.380 89.700 32.600 90.840 32.600C94.040 32.600 95.800 30.880 95.800 28.320C95.800 26.300 94.940 24.680 92.920 24.520C94.460 24.260 95.140 22.780 95.140 21.240C95.140 18.520 92.840 17.600 90.500 17.600C89.380 17.600 88.280 17.800 87.740 18.180C87.240 18.520 87.120 19.040 87.340 19.440C87.580 19.920 88.100 20.100 88.500 19.880C89.120 19.540 89.740 19.400 90.480 19.400C91.760 19.400 93.340 19.820 93.340 21.420C93.340 23.340 91.120 23.860 89.740 23.860C88.940 23.860 88.600 24.120 88.600 24.740C88.600 25.440 89.020 25.720 89.500 25.660C91.200 25.560 94 25.800 94 27.880C94 29.820 92.760 30.800 90.840 30.800C89.980 30.800 89 30.580 88.280 30.280C87.580 29.980 87.120 30.240 86.900 30.720C86.660 31.260 86.880 31.760 87.420 31.980ZM98.500 18.640L101.960 31.640C102.140 32.280 102.560 32.600 103.220 32.600C103.920 32.600 104.300 32.280 104.480 31.640L107.940 18.640C108.080 18.100 107.960 17.600 107.180 17.600C106.640 17.600 106.280 17.840 106.140 18.300L103.520 28.700C103.360 29.320 103.080 29.320 102.920 28.700L100.300 18.300C100.160 17.840 99.800 17.600 99.260 17.600C98.480 17.600 98.360 18.100 98.500 18.640Z" class="textpath"/>
<path d="M282.760 135.600C284.760 135.600 285.920 134.520 286.620 133.020C287.320 131.520 287.500 129.640 287.500 128.040C287.500 124.900 286.760 120.600 282.760 120.600C278.700 120.600 278.020 124.960 278.020 128.060C278.020 131.260 278.760 135.600 282.760 135.600ZM282.760 133.800C281.480 133.800 280.740 132.840 280.340 131.640C279.920 130.460 279.820 129.040 279.820 128.080C279.820 127.140 279.920 125.740 280.340 124.540C280.740 123.360 281.480 122.400 282.760 122.400C285.320 122.400 285.700 126.200 285.700 128.060C285.700 129.980 285.320 133.800 282.760 133.800ZM291.100 121.700L291.100 131.200C291.100 132.500 291.480 133.640 292.200 134.380C292.900 135.140 293.940 135.600 295.300 135.600C298.020 135.600 299.500 133.860 299.500 131.200L299.500 121.700C299.500 121.080 299.220 120.800 298.600 120.800C297.980 120.800 297.700 121.080 297.700 121.700L297.700 131.200C297.700 132.740 296.960 133.800 295.300 133.800C293.640 133.800 292.900 132.800 292.900 131.200L292.900 121.700C292.900 121.080 292.620 120.800 292 120.800C291.380 120.800 291.100 121.080 291.100 121.700ZM305.700 122.600L305.700 134.700C305.700 135.320 305.980 135.600 306.600 135.600C307.220 135.600 307.500 135.320 307.500 134.700L307.500 122.600L310.600 122.600C311.140 122.600 311.500 122.240 311.500 121.700C311.500 121.160 311.140 120.800 310.600 120.800L302.600 120.800C302.060 120.800 301.700 121.160 301.700 121.700C301.700 122.240 302.060 122.600 302.600 122.600Z" class="textpath"/>
<path d="M171.730 76L174.090 76L177.010 82C177.230 82.400 177.530 82.600 178.090 82.600C178.870 82.600 179.110 82.220 178.710 81.420L175.970 75.840C177.790 75.420 179.090 74.040 179.090 71.900C179.090 69.280 177.130 67.800 174.630 67.800L171.530 67.800C170.430 67.800 169.930 68.300 169.930 69.400L169.930 81.700C169.930 82.320 170.210 82.600 170.830 82.600C171.450 82.600 171.730 82.320 171.730 81.700ZM171.730 74.200L171.730 70.400C171.730 69.860 171.990 69.600 172.530 69.600L174.630 69.600C176.070 69.600 177.230 70.360 177.230 71.900C177.230 72.640 176.930 73.240 176.470 73.620C175.990 74 175.350 74.200 174.630 74.200ZM182.350 82.400L189.950 82.400C190.570 82.400 190.850 82.120 190.850 81.500C190.850 80.880 190.570 80.600 189.950 80.600L187.410 80.600L187.410 69.200C187.410 68.100 186.910 67.600 185.810 67.600C185.230 67.600 184.770 67.720 184.310 68.100L182.110 69.820C181.810 70.060 181.650 70.360 181.650 70.940C181.650 71.940 182.050 72.200 183.030 71.420L184.990 69.860C185.390 69.520 185.610 69.580 185.610 70.160L185.610 80.600L182.350 80.600C181.730 80.600 181.450 80.880 181.450 81.500C181.450 82.120 181.730 82.400 182.350 82.400Z" class="textpath"/>
<path d="M170.350 105.400L177.950 105.400C178.570 105.400 178.850 105.120 178.850 104.500C178.850 103.880 178.570 103.600 177.950 103.600L175.410 103.600L175.410 92.200C175.410 91.100 174.910 90.600 173.810 90.600C173.230 90.600 172.770 90.720 172.310 91.100L170.110 92.820C169.810 93.060 169.650 93.360 169.650 93.940C169.650 94.940 170.050 95.200 171.030 94.420L172.990 92.860C173.390 92.520 173.610 92.580 173.610 93.160L173.610 103.600L170.350 103.600C169.730 103.600 169.450 103.880 169.450 104.500C169.450 105.120 169.730 105.400 170.350 105.400ZM185.510 105.600C187.510 105.600 188.670 104.520 189.370 103.020C190.070 101.520 190.250 99.620 190.250 98C190.250 94.900 189.550 90.600 185.550 90.600C183.530 90.600 182.350 91.700 181.650 93.160C180.950 94.640 180.770 96.520 180.770 98.100C180.770 101.240 181.510 105.600 185.510 105.600ZM185.510 103.800C184.230 103.800 183.490 102.840 183.090 101.640C183.070 101.620 183.070 101.600 183.050 101.580L188.390 96.880C188.430 97.320 188.450 97.720 188.450 98.060C188.450 99.980 188.070 103.800 185.510 103.800ZM187.950 94.580L182.630 99.280C182.590 98.840 182.570 98.440 182.570 98.080C182.570 97.140 182.670 95.740 183.090 94.540C183.490 93.360 184.230 92.400 185.510 92.400C186.790 92.400 187.530 93.340 187.950 94.520ZM196.050 104.700L196.050 101.600L197.790 99.840L200.850 105.040C201.170 105.600 201.610 105.600 202.070 105.600C202.550 105.600 202.990 105.060 202.610 104.480L199.070 98.520L202.070 95.460C202.610 94.920 202.230 94.200 201.490 94.200C201.150 94.200 200.850 94.320 200.550 94.620L196.050 99.140L196.050 91.500C196.050 90.880 195.770 90.600 195.150 90.600C194.530 90.600 194.250 90.880 194.250 91.500L194.250 104.700C194.250 105.320 194.530 105.600 195.150 105.600C195.770 105.600 196.050 105.320 196.050 104.700ZM205.050 105.400L207.650 105.400C208.190 105.400 208.450 105.040 208.450 104.500L208.450 103.800C208.450 103.420 208.250 103.340 207.690 102.960C207.110 102.540 206.650 101.320 206.550 100.200C206.450 99.260 206.410 98.520 206.410 97.740C206.410 97 206.450 96.240 206.550 95.300C206.710 93.640 207.650 92.400 209.250 92.400C210.850 92.400 211.790 93.640 211.950 95.300C212.170 97.160 212.170 98.340 211.950 100.200C211.850 101.320 211.390 102.540 210.810 102.960C210.250 103.340 210.050 103.420 210.050 103.800L210.050 104.500C210.050 105.040 210.310 105.400 210.850 105.400L213.470 105.400C214.010 105.400 214.270 105.040 214.270 104.500C214.270 103.960 214.010 103.600 213.470 103.600L211.350 103.600C212.190 103.520 213.110 102.780 213.590 101.500C213.890 100.720 213.850 99.640 213.910 98.820C213.970 97.700 214.010 96.660 213.850 95.300C213.590 92.680 211.970 90.600 209.250 90.600C206.530 90.600 204.910 92.680 204.650 95.300C204.550 96.200 204.510 96.960 204.510 97.700C204.510 98.440 204.550 99.160 204.650 100.100C204.870 102.180 206.190 103.500 207.150 103.600L205.050 103.600C204.510 103.600 204.250 103.960 204.250 104.500C204.250 105.040 204.510 105.400 205.050 105.400Z" class="textpath"/>
<path d="M171.730 159L174.090 159L177.010 165C177.230 165.400 177.530 165.600 178.090 165.600C178.870 165.600 179.110 165.220 178.710 164.420L175.970 158.840C177.790 158.420 179.090 157.040 179.090 154.900C179.090 152.280 177.130 150.800 174.630 150.800L171.530 150.800C170.430 150.800 169.930 151.300 169.930 152.400L169.930 164.700C169.930 165.320 170.210 165.600 170.830 165.600C171.450 165.600 171.730 165.320 171.730 164.700ZM171.730 157.200L171.730 153.400C171.730 152.860 171.990 152.600 172.530 152.600L174.630 152.600C176.070 152.600 177.230 153.360 177.230 154.900C177.230 155.640 176.930 156.240 176.470 156.620C175.990 157 175.350 157.200 174.630 157.200ZM182.490 165.400L189.610 165.400C190.230 165.400 190.510 165.120 190.510 164.500C190.510 163.880 190.230 163.600 189.610 163.600L184.470 163.600C184.010 163.600 183.990 163.380 184.130 163.240L187.670 159.480C189.010 158.040 190.130 156.320 190.130 154.660C190.130 151.460 188.050 150.600 185.550 150.600C184.030 150.600 183.030 150.820 182.170 151.440C181.770 151.740 181.590 152.240 181.830 152.660C182.090 153.120 182.610 153.380 183.090 153.080C183.750 152.680 184.430 152.400 185.490 152.400C187.090 152.400 188.330 153.020 188.330 154.880C188.330 156.220 187.010 157.660 186.150 158.560L181.710 163.160C181.410 163.460 181.290 163.820 181.290 164.240C181.290 165.020 181.710 165.400 182.490 165.400Z" class="textpath"/>
<path d="M170.350 188.400L177.950 188.400C178.570 188.400 178.850 188.120 178.850 187.500C178.850 186.880 178.570 186.600 177.950 186.600L175.410 186.600L175.410 175.200C175.410 174.100 174.910 173.600 173.810 173.600C173.230 173.600 172.770 173.720 172.310 174.100L170.110 175.820C169.810 176.060 169.650 176.360 169.650 176.940C169.650 177.940 170.050 178.200 171.030 177.420L172.990 175.860C173.390 175.520 173.610 175.580 173.610 176.160L173.610 186.600L170.350 186.600C169.730 186.600 169.450 186.880 169.450 187.500C169.450 188.120 169.730 188.400 170.350 188.400ZM185.510 188.600C187.510 188.600 188.670 187.520 189.370 186.020C190.070 184.520 190.250 182.620 190.250 181C190.250 177.900 189.550 173.600 185.550 173.600C183.530 173.600 182.350 174.700 181.650 176.160C180.950 177.640 180.770 179.520 180.770 181.100C180.770 184.240 181.510 188.600 185.510 188.600ZM185.510 186.800C184.230 186.800 183.490 185.840 183.090 184.640C183.070 184.620 183.070 184.600 183.050 184.580L188.390 179.880C188.430 180.320 188.450 180.720 188.450 181.060C188.450 182.980 188.070 186.800 185.510 186.800ZM187.950 177.580L182.630 182.280C182.590 181.840 182.570 181.440 182.570 181.080C182.570 180.140 182.670 178.740 183.090 177.540C183.490 176.360 184.230 175.400 185.510 175.400C186.790 175.400 187.530 176.340 187.950 177.520ZM196.050 187.700L196.050 184.600L197.790 182.840L200.850 188.040C201.170 188.600 201.610 188.600 202.070 188.600C202.550 188.600 202.990 188.060 202.610 187.480L199.070 181.520L202.070 178.460C202.610 177.920 202.230 177.200 201.490 177.200C201.150 177.200 200.850 177.320 200.550 177.620L196.050 182.140L196.050 174.500C196.050 173.880 195.770 173.600 195.150 173.600C194.530 173.600 194.250 173.880 194.250 174.500L194.250 187.700C194.250 188.320 194.530 188.600 195.150 188.600C195.770 188.600 196.050 188.320 196.050 187.700ZM205.050 188.400L207.650 188.400C208.190 188.400 208.450 188.040 208.450 187.500L208.450 186.800C208.450 186.420 208.250 186.340 207.690 185.960C207.110 185.540 206.650 184.320 206.550 183.200C206.450 182.260 206.410 181.520 206.410 180.740C206.410 180 206.450 179.240 206.550 178.300C206.710 176.640 207.650 175.400 209.250 175.400C210.850 175.400 211.790 176.640 211.950 178.300C212.170 180.160 212.170 181.340 211.950 183.200C211.850 184.320 211.390 185.540 210.810 185.960C210.250 186.340 210.050 186.420 210.050 186.800L210.050 187.500C210.050 188.040 210.310 188.400 210.850 188.400L213.470 188.400C214.010 188.400 214.270 188.040 214.270 187.500C214.270 186.960 214.010 186.600 213.470 186.600L211.350 186.600C212.190 186.520 213.110 185.780 213.590 184.500C213.890 183.720 213.850 182.640 213.910 181.820C213.970 180.700 214.010 179.660 213.850 178.300C213.590 175.680 211.970 173.600 209.250 173.600C206.530 173.600 204.910 175.680 204.650 178.300C204.550 179.200 204.510 179.960 204.510 180.700C204.510 181.440 204.550 182.160 204.650 183.100C204.870 185.180 206.190 186.500 207.150 186.600L205.050 186.600C204.510 186.600 204.250 186.960 204.250 187.500C204.250 188.040 204.510 188.400 205.050 188.400Z" class="textpath"/>
</g>
</svg>