<svg width="1375" height="1058" xmlns="http://www.w3.org/2000/svg" xmlns:xlink="http://www.w3.org/1999/xlink" xml:space="preserve" overflow="hidden"><defs><clipPath id="clip0"><rect x="2458" y="976" width="57" height="118"/></clipPath><clipPath id="clip1"><rect x="2458" y="976" width="57" height="118"/></clipPath><clipPath id="clip2"><rect x="3241" y="960" width="58" height="119"/></clipPath><clipPath id="clip3"><rect x="3241" y="960" width="58" height="119"/></clipPath></defs><g transform="translate(-2277 -504)"><g><text fill="#000000" fill-opacity="1" font-family="Aptos,Aptos_MSFontService,sans-serif" font-style="normal" font-variant="normal" font-weight="400" font-stretch="normal" font-size="64" text-anchor="start" direction="ltr" writing-mode="lr-tb" unicode-bidi="normal" text-decoration="none" transform="matrix(1 0 0 1 2396.34 588)">Configuration C</text><text fill="#000000" fill-opacity="1" font-family="Aptos,Aptos_MSFontService,sans-serif" font-style="normal" font-variant="normal" font-weight="400" font-stretch="normal" font-size="64" text-anchor="start" direction="ltr" writing-mode="lr-tb" unicode-bidi="normal" text-decoration="none" transform="matrix(1 0 0 1 3174.16 587)">Configuration D</text><text fill="#000000" fill-opacity="1" font-family="Aptos,Aptos_MSFontService,sans-serif" font-style="normal" font-variant="normal" font-weight="400" font-stretch="normal" font-size="32" text-anchor="start" direction="ltr" writing-mode="lr-tb" unicode-bidi="normal" text-decoration="none" transform="matrix(1 0 0 1 2626.71 1532)">GND</text><path d="M2351.5 1034.5 2653.53 1034.5" stroke="#000000" stroke-width="3.4375" stroke-linecap="butt" stroke-linejoin="miter" stroke-miterlimit="8" stroke-opacity="1" fill="none" fill-rule="evenodd"/><g clip-path="url(#clip0)"><g clip-path="url(#clip1)"><g><path d="M232.886 199.234 232.886 132.751" stroke="#231F20" stroke-width="1.64316" stroke-linecap="butt" stroke-linejoin="miter" stroke-miterlimit="10" stroke-opacity="1" fill="none" fill-rule="nonzero" transform="matrix(-1.84695e-16 -1.00543 1 -1.83697e-16 2264.93 1268.37)"/><path d="M232.886 333.036 232.886 249.712" stroke="#231F20" stroke-width="1.64316" stroke-linecap="butt" stroke-linejoin="miter" stroke-miterlimit="10" stroke-opacity="1" fill="none" fill-rule="nonzero" transform="matrix(-1.84695e-16 -1.00543 1 -1.83697e-16 2264.93 1268.37)"/><path d="M232.886 199.234 203.736 249.712 262.035 249.712 232.886 199.234Z" stroke="#231F20" stroke-width="1.64316" stroke-linecap="butt" stroke-linejoin="miter" stroke-miterlimit="10" stroke-opacity="1" fill="#231F20" fill-rule="nonzero" fill-opacity="1" transform="matrix(-1.84695e-16 -1.00543 1 -1.83697e-16 2264.93 1268.37)"/><path d="M203.736 199.234 262.035 199.234" stroke="#231F20" stroke-width="1.64316" stroke-linecap="butt" stroke-linejoin="miter" stroke-miterlimit="10" stroke-opacity="1" fill="none" fill-rule="nonzero" transform="matrix(-1.84695e-16 -1.00543 1 -1.83697e-16 2264.93 1268.37)"/><path d="M271.911 208.255 262.035 218.114" stroke="#231F20" stroke-width="1.64316" stroke-linecap="butt" stroke-linejoin="miter" stroke-miterlimit="10" stroke-opacity="1" fill="none" fill-rule="nonzero" transform="matrix(-1.84695e-16 -1.00543 1 -1.83697e-16 2264.93 1268.37)"/><path d="M268.263 207.564 278.483 201.665 272.584 211.886 268.263 207.564Z" fill="#231F20" fill-rule="nonzero" fill-opacity="1" transform="matrix(-1.84695e-16 -1.00543 1 -1.83697e-16 2264.93 1268.37)"/><path d="M271.911 219.74 262.035 229.599" stroke="#231F20" stroke-width="1.64316" stroke-linecap="butt" stroke-linejoin="miter" stroke-miterlimit="10" stroke-opacity="1" fill="none" fill-rule="nonzero" transform="matrix(-1.84695e-16 -1.00543 1 -1.83697e-16 2264.93 1268.37)"/><path d="M268.263 219.05 278.483 213.151 272.584 223.372 268.263 219.05Z" fill="#231F20" fill-rule="nonzero" fill-opacity="1" transform="matrix(-1.84695e-16 -1.00543 1 -1.83697e-16 2264.93 1268.37)"/></g></g></g><path d="M2352.5 1033.5 2352.5 1148.32" stroke="#000000" stroke-width="3.4375" stroke-linecap="butt" stroke-linejoin="miter" stroke-miterlimit="8" stroke-opacity="1" fill="none" fill-rule="evenodd"/><path d="M2370.5 1148.5 2353 1179.5 2335.5 1148.5Z" stroke="#000000" stroke-width="3.4375" stroke-linecap="butt" stroke-linejoin="miter" stroke-miterlimit="8" stroke-opacity="1" fill="none" fill-rule="evenodd"/><text fill="#000000" fill-opacity="1" font-family="Aptos,Aptos_MSFontService,sans-serif" font-style="normal" font-variant="normal" font-weight="400" font-stretch="normal" font-size="32" text-anchor="start" direction="ltr" writing-mode="lr-tb" unicode-bidi="normal" text-decoration="none" transform="matrix(1 0 0 1 2315.45 1221)">GND</text><text fill="#000000" fill-opacity="1" font-family="Aptos,Aptos_MSFontService,sans-serif" font-style="normal" font-variant="normal" font-weight="400" font-stretch="normal" font-size="32" text-anchor="start" direction="ltr" writing-mode="lr-tb" unicode-bidi="normal" text-decoration="none" transform="matrix(1 0 0 1 2466.37 967)">LED</text><text fill="#000000" fill-opacity="1" font-family="Aptos,Aptos_MSFontService,sans-serif" font-style="normal" font-variant="normal" font-weight="400" font-stretch="normal" font-size="32" text-anchor="start" direction="ltr" writing-mode="lr-tb" unicode-bidi="normal" text-decoration="none" transform="matrix(1 0 0 1 2631.48 692)">+5 V</text><g><g><g><path d="M485.646 427.395 485.646 276.832" stroke="#231F20" stroke-width="3.42656" stroke-linecap="butt" stroke-linejoin="miter" stroke-miterlimit="10" stroke-opacity="1" fill="none" fill-rule="nonzero" transform="matrix(1.00127 0 0 1 2175.02 760.848)"/><path d="M485.646 694.495 485.646 543.897" stroke="#231F20" stroke-width="3.42656" stroke-linecap="butt" stroke-linejoin="miter" stroke-miterlimit="10" stroke-opacity="1" fill="none" fill-rule="nonzero" transform="matrix(1.00127 0 0 1 2175.02 760.848)"/><path d="M461.386 427.395 509.94 427.395 509.94 543.898 461.386 543.898Z" stroke="#231F20" stroke-width="3.42656" stroke-linecap="butt" stroke-linejoin="miter" stroke-miterlimit="10" stroke-opacity="1" fill="none" fill-rule="nonzero" transform="matrix(1.00127 0 0 1 2175.02 760.848)"/></g></g></g><text fill="#000000" fill-opacity="1" font-family="Aptos,Aptos_MSFontService,sans-serif" font-style="normal" font-variant="normal" font-weight="400" font-stretch="normal" font-size="32" text-anchor="start" direction="ltr" writing-mode="lr-tb" unicode-bidi="normal" text-decoration="none" transform="matrix(1 0 0 1 2707.39 1260)">10 k</text><text fill="#000000" fill-opacity="1" font-family="Aptos,Aptos_MSFontService,sans-serif" font-style="normal" font-variant="normal" font-weight="400" font-stretch="normal" font-size="32" text-anchor="start" direction="ltr" writing-mode="lr-tb" unicode-bidi="normal" text-decoration="none" transform="matrix(1 0 0 1 2763.53 1260)">Ω</text><path d="M2662 1027.5C2665.59 1027.5 2668.5 1030.41 2668.5 1034 2668.5 1037.59 2665.59 1040.5 2662 1040.5 2658.41 1040.5 2655.5 1037.59 2655.5 1034 2655.5 1030.41 2658.41 1027.5 2662 1027.5Z" stroke="#000000" stroke-width="6.875" stroke-linecap="butt" stroke-linejoin="miter" stroke-miterlimit="8" stroke-opacity="1" fill="#000000" fill-rule="evenodd" fill-opacity="1"/><path d="M2663.5 709.5 2663.5 824.316" stroke="#000000" stroke-width="3.4375" stroke-linecap="butt" stroke-linejoin="miter" stroke-miterlimit="8" stroke-opacity="1" fill="none" fill-rule="evenodd"/><path d="M2663 823.5C2666.59 823.5 2669.5 826.41 2669.5 830 2669.5 833.59 2666.59 836.5 2663 836.5 2659.41 836.5 2656.5 833.59 2656.5 830 2656.5 826.41 2659.41 823.5 2663 823.5Z" stroke="#000000" stroke-width="3.4375" stroke-linecap="butt" stroke-linejoin="miter" stroke-miterlimit="8" stroke-opacity="1" fill="none" fill-rule="evenodd"/><path d="M2662 902.5C2665.59 902.5 2668.5 905.41 2668.5 909 2668.5 912.59 2665.59 915.5 2662 915.5 2658.41 915.5 2655.5 912.59 2655.5 909 2655.5 905.41 2658.41 902.5 2662 902.5Z" stroke="#000000" stroke-width="3.4375" stroke-linecap="butt" stroke-linejoin="miter" stroke-miterlimit="8" stroke-opacity="1" fill="none" fill-rule="evenodd"/><path d="M2693.5 826.5 2693.5 912.929" stroke="#000000" stroke-width="3.4375" stroke-linecap="butt" stroke-linejoin="miter" stroke-miterlimit="8" stroke-opacity="1" fill="none" fill-rule="evenodd"/><path d="M0 0 0.000360892 32.083" stroke="#000000" stroke-width="3.4375" stroke-linecap="butt" stroke-linejoin="miter" stroke-miterlimit="8" stroke-opacity="1" fill="none" fill-rule="evenodd" transform="matrix(6.12323e-17 1 1 -6.12323e-17 2692.5 871.5)"/><path d="M2662.5 915.5 2662.5 1030.32" stroke="#000000" stroke-width="3.4375" stroke-linecap="butt" stroke-linejoin="miter" stroke-miterlimit="8" stroke-opacity="1" fill="none" fill-rule="evenodd"/><text fill="#000000" fill-opacity="1" font-family="Aptos,Aptos_MSFontService,sans-serif" font-style="normal" font-variant="normal" font-weight="400" font-stretch="normal" font-size="32" text-anchor="start" direction="ltr" writing-mode="lr-tb" unicode-bidi="normal" text-decoration="none" transform="matrix(1 0 0 1 2740.56 883)">Button</text><path d="M2679.5 1455.5 2661.5 1486.5 2643.5 1455.5Z" stroke="#000000" stroke-width="3.4375" stroke-linecap="butt" stroke-linejoin="miter" stroke-miterlimit="8" stroke-opacity="1" fill="none" fill-rule="evenodd"/><text fill="#000000" fill-opacity="1" font-family="Aptos,Aptos_MSFontService,sans-serif" font-style="normal" font-variant="normal" font-weight="400" font-stretch="normal" font-size="32" text-anchor="start" direction="ltr" writing-mode="lr-tb" unicode-bidi="normal" text-decoration="none" transform="matrix(1 0 0 1 3410.56 1517)">GND</text><path d="M3135.5 1019.5 3437.53 1019.5" stroke="#000000" stroke-width="3.4375" stroke-linecap="butt" stroke-linejoin="miter" stroke-miterlimit="8" stroke-opacity="1" fill="none" fill-rule="evenodd"/><g clip-path="url(#clip2)"><g clip-path="url(#clip3)"><g><path d="M236.151 202.027 236.151 134.613" stroke="#231F20" stroke-width="1.6662" stroke-linecap="butt" stroke-linejoin="miter" stroke-miterlimit="10" stroke-opacity="1" fill="none" fill-rule="nonzero" transform="matrix(-6.12323e-17 -1 -1.00379 6.14644e-17 3494.52 1254.86)"/><path d="M236.151 337.706 236.151 253.213" stroke="#231F20" stroke-width="1.6662" stroke-linecap="butt" stroke-linejoin="miter" stroke-miterlimit="10" stroke-opacity="1" fill="none" fill-rule="nonzero" transform="matrix(-6.12323e-17 -1 -1.00379 6.14644e-17 3494.52 1254.86)"/><path d="M236.151 202.027 206.592 253.213 265.709 253.213 236.151 202.027Z" stroke="#231F20" stroke-width="1.6662" stroke-linecap="butt" stroke-linejoin="miter" stroke-miterlimit="10" stroke-opacity="1" fill="#231F20" fill-rule="nonzero" fill-opacity="1" transform="matrix(-6.12323e-17 -1 -1.00379 6.14644e-17 3494.52 1254.86)"/><path d="M206.592 202.027 265.709 202.027" stroke="#231F20" stroke-width="1.6662" stroke-linecap="butt" stroke-linejoin="miter" stroke-miterlimit="10" stroke-opacity="1" fill="none" fill-rule="nonzero" transform="matrix(-6.12323e-17 -1 -1.00379 6.14644e-17 3494.52 1254.86)"/><path d="M275.723 211.175 265.709 221.172" stroke="#231F20" stroke-width="1.6662" stroke-linecap="butt" stroke-linejoin="miter" stroke-miterlimit="10" stroke-opacity="1" fill="none" fill-rule="nonzero" transform="matrix(-6.12323e-17 -1 -1.00379 6.14644e-17 3494.52 1254.86)"/><path d="M272.024 210.475 282.388 204.493 276.406 214.857 272.024 210.475Z" fill="#231F20" fill-rule="nonzero" fill-opacity="1" transform="matrix(-6.12323e-17 -1 -1.00379 6.14644e-17 3494.52 1254.86)"/><path d="M275.723 222.821 265.709 232.819" stroke="#231F20" stroke-width="1.6662" stroke-linecap="butt" stroke-linejoin="miter" stroke-miterlimit="10" stroke-opacity="1" fill="none" fill-rule="nonzero" transform="matrix(-6.12323e-17 -1 -1.00379 6.14644e-17 3494.52 1254.86)"/><path d="M272.024 222.122 282.388 216.14 276.406 226.504 272.024 222.122Z" fill="#231F20" fill-rule="nonzero" fill-opacity="1" transform="matrix(-6.12323e-17 -1 -1.00379 6.14644e-17 3494.52 1254.86)"/></g></g></g><path d="M3136.5 1018.5 3136.5 1133.32" stroke="#000000" stroke-width="3.4375" stroke-linecap="butt" stroke-linejoin="miter" stroke-miterlimit="8" stroke-opacity="1" fill="none" fill-rule="evenodd"/><path d="M3154.5 1132.5 3136.5 1163.5 3118.5 1132.5Z" stroke="#000000" stroke-width="3.4375" stroke-linecap="butt" stroke-linejoin="miter" stroke-miterlimit="8" stroke-opacity="1" fill="none" fill-rule="evenodd"/><text fill="#000000" fill-opacity="1" font-family="Aptos,Aptos_MSFontService,sans-serif" font-style="normal" font-variant="normal" font-weight="400" font-stretch="normal" font-size="32" text-anchor="start" direction="ltr" writing-mode="lr-tb" unicode-bidi="normal" text-decoration="none" transform="matrix(1 0 0 1 3099.3 1205)">GND</text><text fill="#000000" fill-opacity="1" font-family="Aptos,Aptos_MSFontService,sans-serif" font-style="normal" font-variant="normal" font-weight="400" font-stretch="normal" font-size="32" text-anchor="start" direction="ltr" writing-mode="lr-tb" unicode-bidi="normal" text-decoration="none" transform="matrix(1 0 0 1 3250.22 951)">LED</text><text fill="#000000" fill-opacity="1" font-family="Aptos,Aptos_MSFontService,sans-serif" font-style="normal" font-variant="normal" font-weight="400" font-stretch="normal" font-size="32" text-anchor="start" direction="ltr" writing-mode="lr-tb" unicode-bidi="normal" text-decoration="none" transform="matrix(1 0 0 1 3415.33 676)">+5 V</text><g><g><g><path d="M485.646 427.395 485.646 276.832" stroke="#231F20" stroke-width="3.42656" stroke-linecap="butt" stroke-linejoin="miter" stroke-miterlimit="10" stroke-opacity="1" fill="none" fill-rule="nonzero" transform="matrix(1.00127 0 0 1 2959.02 744.848)"/><path d="M485.646 694.495 485.646 543.897" stroke="#231F20" stroke-width="3.42656" stroke-linecap="butt" stroke-linejoin="miter" stroke-miterlimit="10" stroke-opacity="1" fill="none" fill-rule="nonzero" transform="matrix(1.00127 0 0 1 2959.02 744.848)"/><path d="M461.386 427.395 509.94 427.395 509.94 543.898 461.386 543.898Z" stroke="#231F20" stroke-width="3.42656" stroke-linecap="butt" stroke-linejoin="miter" stroke-miterlimit="10" stroke-opacity="1" fill="none" fill-rule="nonzero" transform="matrix(1.00127 0 0 1 2959.02 744.848)"/></g></g></g><text fill="#000000" fill-opacity="1" font-family="Aptos,Aptos_MSFontService,sans-serif" font-style="normal" font-variant="normal" font-weight="400" font-stretch="normal" font-size="32" text-anchor="start" direction="ltr" writing-mode="lr-tb" unicode-bidi="normal" text-decoration="none" transform="matrix(1 0 0 1 3491.24 1244)">10 k</text><text fill="#000000" fill-opacity="1" font-family="Aptos,Aptos_MSFontService,sans-serif" font-style="normal" font-variant="normal" font-weight="400" font-stretch="normal" font-size="32" text-anchor="start" direction="ltr" writing-mode="lr-tb" unicode-bidi="normal" text-decoration="none" transform="matrix(1 0 0 1 3547.38 1244)">Ω</text><path d="M3446 1011.5C3449.59 1011.5 3452.5 1014.41 3452.5 1018 3452.5 1021.59 3449.59 1024.5 3446 1024.5 3442.41 1024.5 3439.5 1021.59 3439.5 1018 3439.5 1014.41 3442.41 1011.5 3446 1011.5Z" stroke="#000000" stroke-width="6.875" stroke-linecap="butt" stroke-linejoin="miter" stroke-miterlimit="8" stroke-opacity="1" fill="#000000" fill-rule="evenodd" fill-opacity="1"/><path d="M3447.5 693.5 3447.5 808.316" stroke="#000000" stroke-width="3.4375" stroke-linecap="butt" stroke-linejoin="miter" stroke-miterlimit="8" stroke-opacity="1" fill="none" fill-rule="evenodd"/><path d="M3447 807.5C3450.59 807.5 3453.5 810.41 3453.5 814 3453.5 817.59 3450.59 820.5 3447 820.5 3443.41 820.5 3440.5 817.59 3440.5 814 3440.5 810.41 3443.41 807.5 3447 807.5Z" stroke="#000000" stroke-width="3.4375" stroke-linecap="butt" stroke-linejoin="miter" stroke-miterlimit="8" stroke-opacity="1" fill="none" fill-rule="evenodd"/><path d="M3446 886.5C3449.59 886.5 3452.5 889.41 3452.5 893 3452.5 896.59 3449.59 899.5 3446 899.5 3442.41 899.5 3439.5 896.59 3439.5 893 3439.5 889.41 3442.41 886.5 3446 886.5Z" stroke="#000000" stroke-width="3.4375" stroke-linecap="butt" stroke-linejoin="miter" stroke-miterlimit="8" stroke-opacity="1" fill="none" fill-rule="evenodd"/><path d="M3477.5 810.5 3477.5 896.93" stroke="#000000" stroke-width="3.4375" stroke-linecap="butt" stroke-linejoin="miter" stroke-miterlimit="8" stroke-opacity="1" fill="none" fill-rule="evenodd"/><path d="M0 0 0.000360892 32.083" stroke="#000000" stroke-width="3.4375" stroke-linecap="butt" stroke-linejoin="miter" stroke-miterlimit="8" stroke-opacity="1" fill="none" fill-rule="evenodd" transform="matrix(6.12323e-17 1 1 -6.12323e-17 3475.5 855.5)"/><path d="M3446.5 899.5 3446.5 1014.32" stroke="#000000" stroke-width="3.4375" stroke-linecap="butt" stroke-linejoin="miter" stroke-miterlimit="8" stroke-opacity="1" fill="none" fill-rule="evenodd"/><text fill="#000000" fill-opacity="1" font-family="Aptos,Aptos_MSFontService,sans-serif" font-style="normal" font-variant="normal" font-weight="400" font-stretch="normal" font-size="32" text-anchor="start" direction="ltr" writing-mode="lr-tb" unicode-bidi="normal" text-decoration="none" transform="matrix(1 0 0 1 3524.41 867)">Button</text><path d="M3463.5 1439.5 3445.5 1470.5 3427.5 1439.5Z" stroke="#000000" stroke-width="3.4375" stroke-linecap="butt" stroke-linejoin="miter" stroke-miterlimit="8" stroke-opacity="1" fill="none" fill-rule="evenodd"/></g></g></svg>