<svg width="1394" height="1063" xmlns="http://www.w3.org/2000/svg" xmlns:xlink="http://www.w3.org/1999/xlink" xml:space="preserve" overflow="hidden"><defs><clipPath id="clip0"><rect x="882" y="1085" width="57" height="119"/></clipPath><clipPath id="clip1"><rect x="882" y="1085" width="57" height="119"/></clipPath><clipPath id="clip2"><rect x="1649" y="1085" width="57" height="119"/></clipPath><clipPath id="clip3"><rect x="1649" y="1085" width="57" height="119"/></clipPath></defs><g transform="translate(-705 -504)"><g><g><g><g><path d="M485.646 427.395 485.646 276.832" stroke="#231F20" stroke-width="3.42656" stroke-linecap="butt" stroke-linejoin="miter" stroke-miterlimit="10" stroke-opacity="1" fill="none" fill-rule="nonzero" transform="matrix(1.00127 0 0 1 600.02 442.848)"/><path d="M485.646 694.495 485.646 543.897" stroke="#231F20" stroke-width="3.42656" stroke-linecap="butt" stroke-linejoin="miter" stroke-miterlimit="10" stroke-opacity="1" fill="none" fill-rule="nonzero" transform="matrix(1.00127 0 0 1 600.02 442.848)"/><path d="M461.386 427.395 509.94 427.395 509.94 543.898 461.386 543.898Z" stroke="#231F20" stroke-width="3.42656" stroke-linecap="butt" stroke-linejoin="miter" stroke-miterlimit="10" stroke-opacity="1" fill="none" fill-rule="nonzero" transform="matrix(1.00127 0 0 1 600.02 442.848)"/></g></g></g><path d="M1087 1137.5C1090.59 1137.5 1093.5 1140.41 1093.5 1144 1093.5 1147.59 1090.59 1150.5 1087 1150.5 1083.41 1150.5 1080.5 1147.59 1080.5 1144 1080.5 1140.41 1083.41 1137.5 1087 1137.5Z" stroke="#000000" stroke-width="6.875" stroke-linecap="butt" stroke-linejoin="miter" stroke-miterlimit="8" stroke-opacity="1" fill="#000000" fill-rule="evenodd" fill-opacity="1"/><path d="M1086.5 1144.5 1086.5 1259.32" stroke="#000000" stroke-width="3.4375" stroke-linecap="butt" stroke-linejoin="miter" stroke-miterlimit="8" stroke-opacity="1" fill="none" fill-rule="evenodd"/><path d="M1087 1258.5C1090.59 1258.5 1093.5 1261.41 1093.5 1265 1093.5 1268.59 1090.59 1271.5 1087 1271.5 1083.41 1271.5 1080.5 1268.59 1080.5 1265 1080.5 1261.41 1083.41 1258.5 1087 1258.5Z" stroke="#000000" stroke-width="3.4375" stroke-linecap="butt" stroke-linejoin="miter" stroke-miterlimit="8" stroke-opacity="1" fill="none" fill-rule="evenodd"/><path d="M1086 1337.5C1089.59 1337.5 1092.5 1340.41 1092.5 1344 1092.5 1347.59 1089.59 1350.5 1086 1350.5 1082.41 1350.5 1079.5 1347.59 1079.5 1344 1079.5 1340.41 1082.41 1337.5 1086 1337.5Z" stroke="#000000" stroke-width="3.4375" stroke-linecap="butt" stroke-linejoin="miter" stroke-miterlimit="8" stroke-opacity="1" fill="none" fill-rule="evenodd"/><path d="M1116.5 1261.5 1116.5 1347.93" stroke="#000000" stroke-width="3.4375" stroke-linecap="butt" stroke-linejoin="miter" stroke-miterlimit="8" stroke-opacity="1" fill="none" fill-rule="evenodd"/><path d="M0 0 0.000360892 32.083" stroke="#000000" stroke-width="3.4375" stroke-linecap="butt" stroke-linejoin="miter" stroke-miterlimit="8" stroke-opacity="1" fill="none" fill-rule="evenodd" transform="matrix(6.12323e-17 1 1 -6.12323e-17 1115.5 1306.5)"/><path d="M1086.5 1350.5 1086.5 1465.32" stroke="#000000" stroke-width="3.4375" stroke-linecap="butt" stroke-linejoin="miter" stroke-miterlimit="8" stroke-opacity="1" fill="none" fill-rule="evenodd"/><path d="M1104.5 1465.5 1087 1496.5 1069.5 1465.5Z" stroke="#000000" stroke-width="3.4375" stroke-linecap="butt" stroke-linejoin="miter" stroke-miterlimit="8" stroke-opacity="1" fill="none" fill-rule="evenodd"/><path d="M775.5 1144.5 1077.53 1144.5" stroke="#000000" stroke-width="3.4375" stroke-linecap="butt" stroke-linejoin="miter" stroke-miterlimit="8" stroke-opacity="1" fill="none" fill-rule="evenodd"/><text fill="#000000" fill-opacity="1" font-family="Aptos,Aptos_MSFontService,sans-serif" font-style="normal" font-variant="normal" font-weight="400" font-stretch="normal" font-size="32" text-anchor="start" direction="ltr" writing-mode="lr-tb" unicode-bidi="normal" text-decoration="none" transform="matrix(1 0 0 1 1053.53 701)">+5 V</text><text fill="#000000" fill-opacity="1" font-family="Aptos,Aptos_MSFontService,sans-serif" font-style="normal" font-variant="normal" font-weight="400" font-stretch="normal" font-size="32" text-anchor="start" direction="ltr" writing-mode="lr-tb" unicode-bidi="normal" text-decoration="none" transform="matrix(1 0 0 1 1132.27 942)">10 k</text><text fill="#000000" fill-opacity="1" font-family="Aptos,Aptos_MSFontService,sans-serif" font-style="normal" font-variant="normal" font-weight="400" font-stretch="normal" font-size="32" text-anchor="start" direction="ltr" writing-mode="lr-tb" unicode-bidi="normal" text-decoration="none" transform="matrix(1 0 0 1 1188.41 942)">Ω</text><text fill="#000000" fill-opacity="1" font-family="Aptos,Aptos_MSFontService,sans-serif" font-style="normal" font-variant="normal" font-weight="400" font-stretch="normal" font-size="32" text-anchor="start" direction="ltr" writing-mode="lr-tb" unicode-bidi="normal" text-decoration="none" transform="matrix(1 0 0 1 1049.48 1537)">GND</text><g clip-path="url(#clip0)"><g clip-path="url(#clip1)"><g><path d="M232.887 199.235 232.887 132.752" stroke="#231F20" stroke-width="1.64317" stroke-linecap="butt" stroke-linejoin="miter" stroke-miterlimit="10" stroke-opacity="1" fill="none" fill-rule="nonzero" transform="matrix(-1.86272e-16 -1.01402 1 -1.83697e-16 688.928 1379.86)"/><path d="M232.887 333.039 232.887 249.713" stroke="#231F20" stroke-width="1.64317" stroke-linecap="butt" stroke-linejoin="miter" stroke-miterlimit="10" stroke-opacity="1" fill="none" fill-rule="nonzero" transform="matrix(-1.86272e-16 -1.01402 1 -1.83697e-16 688.928 1379.86)"/><path d="M232.887 199.235 203.737 249.713 262.037 249.713 232.887 199.235Z" stroke="#231F20" stroke-width="1.64317" stroke-linecap="butt" stroke-linejoin="miter" stroke-miterlimit="10" stroke-opacity="1" fill="#231F20" fill-rule="nonzero" fill-opacity="1" transform="matrix(-1.86272e-16 -1.01402 1 -1.83697e-16 688.928 1379.86)"/><path d="M203.737 199.235 262.037 199.235" stroke="#231F20" stroke-width="1.64317" stroke-linecap="butt" stroke-linejoin="miter" stroke-miterlimit="10" stroke-opacity="1" fill="none" fill-rule="nonzero" transform="matrix(-1.86272e-16 -1.01402 1 -1.83697e-16 688.928 1379.86)"/><path d="M271.913 208.256 262.037 218.115" stroke="#231F20" stroke-width="1.64317" stroke-linecap="butt" stroke-linejoin="miter" stroke-miterlimit="10" stroke-opacity="1" fill="none" fill-rule="nonzero" transform="matrix(-1.86272e-16 -1.01402 1 -1.83697e-16 688.928 1379.86)"/><path d="M268.265 207.566 278.485 201.667 272.586 211.887 268.265 207.566Z" fill="#231F20" fill-rule="nonzero" fill-opacity="1" transform="matrix(-1.86272e-16 -1.01402 1 -1.83697e-16 688.928 1379.86)"/><path d="M271.913 219.742 262.037 229.601" stroke="#231F20" stroke-width="1.64317" stroke-linecap="butt" stroke-linejoin="miter" stroke-miterlimit="10" stroke-opacity="1" fill="none" fill-rule="nonzero" transform="matrix(-1.86272e-16 -1.01402 1 -1.83697e-16 688.928 1379.86)"/><path d="M268.265 219.052 278.485 213.153 272.586 223.373 268.265 219.052Z" fill="#231F20" fill-rule="nonzero" fill-opacity="1" transform="matrix(-1.86272e-16 -1.01402 1 -1.83697e-16 688.928 1379.86)"/></g></g></g><path d="M776.5 1143.5 776.5 1258.32" stroke="#000000" stroke-width="3.4375" stroke-linecap="butt" stroke-linejoin="miter" stroke-miterlimit="8" stroke-opacity="1" fill="none" fill-rule="evenodd"/><path d="M794.5 1258.5 777 1288.5 759.5 1258.5Z" stroke="#000000" stroke-width="3.4375" stroke-linecap="butt" stroke-linejoin="miter" stroke-miterlimit="8" stroke-opacity="1" fill="none" fill-rule="evenodd"/><text fill="#000000" fill-opacity="1" font-family="Aptos,Aptos_MSFontService,sans-serif" font-style="normal" font-variant="normal" font-weight="400" font-stretch="normal" font-size="32" text-anchor="start" direction="ltr" writing-mode="lr-tb" unicode-bidi="normal" text-decoration="none" transform="matrix(1 0 0 1 739.485 1330)">GND</text><text fill="#000000" fill-opacity="1" font-family="Aptos,Aptos_MSFontService,sans-serif" font-style="normal" font-variant="normal" font-weight="400" font-stretch="normal" font-size="32" text-anchor="start" direction="ltr" writing-mode="lr-tb" unicode-bidi="normal" text-decoration="none" transform="matrix(1 0 0 1 890.408 1076)">LED</text><text fill="#000000" fill-opacity="1" font-family="Aptos,Aptos_MSFontService,sans-serif" font-style="normal" font-variant="normal" font-weight="400" font-stretch="normal" font-size="32" text-anchor="start" direction="ltr" writing-mode="lr-tb" unicode-bidi="normal" text-decoration="none" transform="matrix(1 0 0 1 1165.81 1315)">Button</text><g><g><g><path d="M485.646 427.395 485.646 276.832" stroke="#231F20" stroke-width="3.42656" stroke-linecap="butt" stroke-linejoin="miter" stroke-miterlimit="10" stroke-opacity="1" fill="none" fill-rule="nonzero" transform="matrix(1.00127 0 0 1 1367.02 442.848)"/><path d="M485.646 694.495 485.646 543.897" stroke="#231F20" stroke-width="3.42656" stroke-linecap="butt" stroke-linejoin="miter" stroke-miterlimit="10" stroke-opacity="1" fill="none" fill-rule="nonzero" transform="matrix(1.00127 0 0 1 1367.02 442.848)"/><path d="M461.386 427.395 509.94 427.395 509.94 543.898 461.386 543.898Z" stroke="#231F20" stroke-width="3.42656" stroke-linecap="butt" stroke-linejoin="miter" stroke-miterlimit="10" stroke-opacity="1" fill="none" fill-rule="nonzero" transform="matrix(1.00127 0 0 1 1367.02 442.848)"/></g></g></g><path d="M1854 1137.5C1857.59 1137.5 1860.5 1140.41 1860.5 1144 1860.5 1147.59 1857.59 1150.5 1854 1150.5 1850.41 1150.5 1847.5 1147.59 1847.5 1144 1847.5 1140.41 1850.41 1137.5 1854 1137.5Z" stroke="#000000" stroke-width="6.875" stroke-linecap="butt" stroke-linejoin="miter" stroke-miterlimit="8" stroke-opacity="1" fill="#000000" fill-rule="evenodd" fill-opacity="1"/><path d="M1854.5 1144.5 1854.5 1259.32" stroke="#000000" stroke-width="3.4375" stroke-linecap="butt" stroke-linejoin="miter" stroke-miterlimit="8" stroke-opacity="1" fill="none" fill-rule="evenodd"/><path d="M1854 1258.5C1857.59 1258.5 1860.5 1261.41 1860.5 1265 1860.5 1268.59 1857.59 1271.5 1854 1271.5 1850.41 1271.5 1847.5 1268.59 1847.5 1265 1847.5 1261.41 1850.41 1258.5 1854 1258.5Z" stroke="#000000" stroke-width="3.4375" stroke-linecap="butt" stroke-linejoin="miter" stroke-miterlimit="8" stroke-opacity="1" fill="none" fill-rule="evenodd"/><path d="M1853 1337.5C1856.59 1337.5 1859.5 1340.41 1859.5 1344 1859.5 1347.59 1856.59 1350.5 1853 1350.5 1849.41 1350.5 1846.5 1347.59 1846.5 1344 1846.5 1340.41 1849.41 1337.5 1853 1337.5Z" stroke="#000000" stroke-width="3.4375" stroke-linecap="butt" stroke-linejoin="miter" stroke-miterlimit="8" stroke-opacity="1" fill="none" fill-rule="evenodd"/><path d="M1884.5 1261.5 1884.5 1347.93" stroke="#000000" stroke-width="3.4375" stroke-linecap="butt" stroke-linejoin="miter" stroke-miterlimit="8" stroke-opacity="1" fill="none" fill-rule="evenodd"/><path d="M0 0 0.000360892 32.083" stroke="#000000" stroke-width="3.4375" stroke-linecap="butt" stroke-linejoin="miter" stroke-miterlimit="8" stroke-opacity="1" fill="none" fill-rule="evenodd" transform="matrix(6.12323e-17 1 1 -6.12323e-17 1882.5 1306.5)"/><path d="M1853.5 1350.5 1853.5 1465.32" stroke="#000000" stroke-width="3.4375" stroke-linecap="butt" stroke-linejoin="miter" stroke-miterlimit="8" stroke-opacity="1" fill="none" fill-rule="evenodd"/><path d="M1871.5 1465.5 1854 1496.5 1836.5 1465.5Z" stroke="#000000" stroke-width="3.4375" stroke-linecap="butt" stroke-linejoin="miter" stroke-miterlimit="8" stroke-opacity="1" fill="none" fill-rule="evenodd"/><path d="M1543.5 1144.5 1845.53 1144.5" stroke="#000000" stroke-width="3.4375" stroke-linecap="butt" stroke-linejoin="miter" stroke-miterlimit="8" stroke-opacity="1" fill="none" fill-rule="evenodd"/><text fill="#000000" fill-opacity="1" font-family="Aptos,Aptos_MSFontService,sans-serif" font-style="normal" font-variant="normal" font-weight="400" font-stretch="normal" font-size="32" text-anchor="start" direction="ltr" writing-mode="lr-tb" unicode-bidi="normal" text-decoration="none" transform="matrix(1 0 0 1 1820.66 701)">+5 V</text><text fill="#000000" fill-opacity="1" font-family="Aptos,Aptos_MSFontService,sans-serif" font-style="normal" font-variant="normal" font-weight="400" font-stretch="normal" font-size="32" text-anchor="start" direction="ltr" writing-mode="lr-tb" unicode-bidi="normal" text-decoration="none" transform="matrix(1 0 0 1 1899.4 942)">10 k</text><text fill="#000000" fill-opacity="1" font-family="Aptos,Aptos_MSFontService,sans-serif" font-style="normal" font-variant="normal" font-weight="400" font-stretch="normal" font-size="32" text-anchor="start" direction="ltr" writing-mode="lr-tb" unicode-bidi="normal" text-decoration="none" transform="matrix(1 0 0 1 1955.55 942)">Ω</text><text fill="#000000" fill-opacity="1" font-family="Aptos,Aptos_MSFontService,sans-serif" font-style="normal" font-variant="normal" font-weight="400" font-stretch="normal" font-size="32" text-anchor="start" direction="ltr" writing-mode="lr-tb" unicode-bidi="normal" text-decoration="none" transform="matrix(1 0 0 1 1816.61 1537)">GND</text><g clip-path="url(#clip2)"><g clip-path="url(#clip3)"><g><path d="M232.887 199.235 232.887 132.752" stroke="#231F20" stroke-width="1.64317" stroke-linecap="butt" stroke-linejoin="miter" stroke-miterlimit="10" stroke-opacity="1" fill="none" fill-rule="nonzero" transform="matrix(-6.20907e-17 -1.01402 -1 6.12323e-17 1898.07 1379.86)"/><path d="M232.887 333.039 232.887 249.713" stroke="#231F20" stroke-width="1.64317" stroke-linecap="butt" stroke-linejoin="miter" stroke-miterlimit="10" stroke-opacity="1" fill="none" fill-rule="nonzero" transform="matrix(-6.20907e-17 -1.01402 -1 6.12323e-17 1898.07 1379.86)"/><path d="M232.887 199.235 203.737 249.713 262.037 249.713 232.887 199.235Z" stroke="#231F20" stroke-width="1.64317" stroke-linecap="butt" stroke-linejoin="miter" stroke-miterlimit="10" stroke-opacity="1" fill="#231F20" fill-rule="nonzero" fill-opacity="1" transform="matrix(-6.20907e-17 -1.01402 -1 6.12323e-17 1898.07 1379.86)"/><path d="M203.737 199.235 262.037 199.235" stroke="#231F20" stroke-width="1.64317" stroke-linecap="butt" stroke-linejoin="miter" stroke-miterlimit="10" stroke-opacity="1" fill="none" fill-rule="nonzero" transform="matrix(-6.20907e-17 -1.01402 -1 6.12323e-17 1898.07 1379.86)"/><path d="M271.913 208.256 262.037 218.115" stroke="#231F20" stroke-width="1.64317" stroke-linecap="butt" stroke-linejoin="miter" stroke-miterlimit="10" stroke-opacity="1" fill="none" fill-rule="nonzero" transform="matrix(-6.20907e-17 -1.01402 -1 6.12323e-17 1898.07 1379.86)"/><path d="M268.265 207.566 278.485 201.667 272.586 211.887 268.265 207.566Z" fill="#231F20" fill-rule="nonzero" fill-opacity="1" transform="matrix(-6.20907e-17 -1.01402 -1 6.12323e-17 1898.07 1379.86)"/><path d="M271.913 219.742 262.037 229.601" stroke="#231F20" stroke-width="1.64317" stroke-linecap="butt" stroke-linejoin="miter" stroke-miterlimit="10" stroke-opacity="1" fill="none" fill-rule="nonzero" transform="matrix(-6.20907e-17 -1.01402 -1 6.12323e-17 1898.07 1379.86)"/><path d="M268.265 219.052 278.485 213.153 272.586 223.373 268.265 219.052Z" fill="#231F20" fill-rule="nonzero" fill-opacity="1" transform="matrix(-6.20907e-17 -1.01402 -1 6.12323e-17 1898.07 1379.86)"/></g></g></g><path d="M1543.5 1143.5 1543.5 1258.32" stroke="#000000" stroke-width="3.4375" stroke-linecap="butt" stroke-linejoin="miter" stroke-miterlimit="8" stroke-opacity="1" fill="none" fill-rule="evenodd"/><path d="M1561.5 1258.5 1544 1288.5 1526.5 1258.5Z" stroke="#000000" stroke-width="3.4375" stroke-linecap="butt" stroke-linejoin="miter" stroke-miterlimit="8" stroke-opacity="1" fill="none" fill-rule="evenodd"/><text fill="#000000" fill-opacity="1" font-family="Aptos,Aptos_MSFontService,sans-serif" font-style="normal" font-variant="normal" font-weight="400" font-stretch="normal" font-size="32" text-anchor="start" direction="ltr" writing-mode="lr-tb" unicode-bidi="normal" text-decoration="none" transform="matrix(1 0 0 1 1506.62 1330)">GND</text><text fill="#000000" fill-opacity="1" font-family="Aptos,Aptos_MSFontService,sans-serif" font-style="normal" font-variant="normal" font-weight="400" font-stretch="normal" font-size="32" text-anchor="start" direction="ltr" writing-mode="lr-tb" unicode-bidi="normal" text-decoration="none" transform="matrix(1 0 0 1 1657.54 1076)">LED</text><text fill="#000000" fill-opacity="1" font-family="Aptos,Aptos_MSFontService,sans-serif" font-style="normal" font-variant="normal" font-weight="400" font-stretch="normal" font-size="32" text-anchor="start" direction="ltr" writing-mode="lr-tb" unicode-bidi="normal" text-decoration="none" transform="matrix(1 0 0 1 1932.94 1315)">Button</text><text fill="#000000" fill-opacity="1" font-family="Aptos,Aptos_MSFontService,sans-serif" font-style="normal" font-variant="normal" font-weight="400" font-stretch="normal" font-size="64" text-anchor="start" direction="ltr" writing-mode="lr-tb" unicode-bidi="normal" text-decoration="none" transform="matrix(1 0 0 1 851.751 588)">Configuration A</text><text fill="#000000" fill-opacity="1" font-family="Aptos,Aptos_MSFontService,sans-serif" font-style="normal" font-variant="normal" font-weight="400" font-stretch="normal" font-size="64" text-anchor="start" direction="ltr" writing-mode="lr-tb" unicode-bidi="normal" text-decoration="none" transform="matrix(1 0 0 1 1629.57 587)">Configuration B</text></g></g></svg>