<svg viewBox="0 0 230 240" xmlns="http://www.w3.org/2000/svg">
  <path fill="#fff" paint-order="stroke markers fill" d="M0 0h230v240H0z" />
  <g paint-order="stroke markers fill">
    <path
      d="M48.21 19.998v14.184H21.003V61.81h27.209v18.928H21.002V108.367h27.209v22.266H21.002v27.628h27.209v20.06H21.002v27.628h27.209v14.053h133.576v-14.053h27.211V178.32h-27.21v-20.058h27.21v-27.63h-27.21v-22.265h27.21V80.738h-27.21V61.811h27.21V34.18h-27.21V19.999H48.21zm1.331 1.33h46.822a18.598 18.598 0 009.32 16.108 18.671 18.671 0 0018.633 0 18.598 18.598 0 009.32-16.108h46.821V218.672H49.541V21.328zm49.66 1.33H130.8c-.441 5.164-3.259 9.852-7.809 12.473a16.008 16.008 0 01-15.98 0c-4.55-2.621-7.368-7.309-7.809-12.473zm-26.676 6.24c-6.599 0-11.98 5.366-11.98 11.956 0 6.589 5.381 11.957 11.98 11.957 6.6 0 11.979-5.368 11.979-11.957 0-6.59-5.38-11.956-11.979-11.956zm0 2.659c5.165 0 9.32 4.148 9.32 9.297 0 5.148-4.155 9.296-9.32 9.296-5.164 0-9.32-4.148-9.32-9.296 0-5.15 4.156-9.297 9.32-9.297zM22.332 35.51h25.879v24.97H22.332V35.51zm159.455 0h25.881v24.97h-25.88V35.51zM22.332 82.066h25.879v24.971H22.332v-24.97zm159.455 0h25.881v24.971h-25.88v-24.97zM22.332 131.961h25.879v24.97H22.332v-24.97zm159.455 0h25.881v24.97h-25.88v-24.97zM22.332 179.648h25.879v24.971H22.332v-24.97zm159.455 0h25.881v24.971h-25.88v-24.97z" />
    <path style="-inkscape-stroke:none"
      d="M97.693 21.328a17.306 17.268 0 008.653 14.955 17.306 17.268 0 0017.306 0 17.306 17.268 0 008.655-14.955H115zm-25.168 8.9a10.65 10.627 0 00-10.65 10.626 10.65 10.627 0 0010.65 10.626 10.65 10.627 0 0010.649-10.626 10.65 10.627 0 00-10.649-10.625z"
      color="#000" fill="#404040" />
    <path style="line-height:1.1;;text-align:center"
      d="M31.08 57.431h9.713c.792 0 1.15-.357 1.15-1.147 0-.791-.358-1.148-1.15-1.148h-3.246V40.599c0-1.403-.64-2.04-2.045-2.04-.741 0-1.33.152-1.917.637l-2.812 2.193c-.383.306-.588.689-.588 1.428 0 1.276.512 1.607 1.764.613l2.505-1.99c.511-.433.792-.357.792.383v13.313H31.08c-.792 0-1.15.357-1.15 1.148 0 .79.358 1.147 1.15 1.147z"
      aria-label="1" />
    <path style="line-height:1.1;;text-align:center"
      d="M31.578 103.987h9.1c.792 0 1.15-.357 1.15-1.147s-.358-1.148-1.15-1.148h-6.57c-.587 0-.613-.28-.434-.459l4.525-4.795c1.712-1.836 3.144-4.03 3.144-6.146 0-4.08-2.659-5.178-5.854-5.178-1.942 0-3.22.281-4.32 1.072-.51.382-.74 1.02-.434 1.555.332.587.997.919 1.61.536.844-.51 1.713-.867 3.068-.867 2.044 0 3.63.79 3.63 3.162 0 1.71-1.688 3.545-2.787 4.693l-5.674 5.866c-.384.383-.537.842-.537 1.377 0 .995.537 1.48 1.533 1.48z"
      aria-label="2" />
    <path style="line-height:1.1;;text-align:center"
      d="M30.976 153.219c1.15.51 2.913.79 4.37.79 4.09 0 6.34-2.193 6.34-5.457 0-2.576-1.1-4.642-3.681-4.846 1.968-.332 2.837-2.219 2.837-4.183 0-3.468-2.94-4.641-5.93-4.641-1.431 0-2.837.255-3.527.74-.64.433-.793 1.096-.512 1.606.307.612.972.842 1.483.561.792-.434 1.585-.612 2.53-.612 1.636 0 3.655.536 3.655 2.576 0 2.448-2.837 3.111-4.6 3.111-1.023 0-1.457.332-1.457 1.123 0 .892.536 1.25 1.15 1.173 2.172-.128 5.75.178 5.75 2.83 0 2.475-1.584 3.724-4.038 3.724-1.099 0-2.351-.28-3.271-.663-.895-.382-1.483-.05-1.764.561-.307.689-.026 1.326.665 1.607z"
      aria-label="3" />
    <path style="line-height:1.1;;text-align:center"
      d="M37.278 194.939h-3.961c-.435 0-.665-.077-.665-.357 0-.128.051-.306.179-.51l3.91-6.504c.18-.28.307-.331.384-.331.102 0 .153.102.153.484zm0 5.61c0 .791.358 1.148 1.15 1.148.793 0 1.15-.357 1.15-1.147v-3.316h1.534c.793 0 1.15-.357 1.15-1.147 0-.791-.357-1.148-1.15-1.148H39.58v-10.84c0-1.02-.511-1.53-1.432-1.53-.613 0-.996.23-1.278.664l-6.952 11.221c-.204.332-.307.638-.307 1.122 0 1.097.588 1.658 1.738 1.658h5.93z"
      aria-label="4" />
    <path style="line-height:1.1;;text-align:center"
      d="M199.812 196.112c0-5.509-3.757-6.044-7.157-6.044-.69 0-1.022-.332-1.022-1.02v-3.036c0-.688.332-1.02 1.022-1.02h5.65c.791 0 1.15-.357 1.15-1.147 0-.791-.359-1.148-1.15-1.148h-6.928c-1.406 0-2.045.638-2.045 2.04v5.56c0 1.428.64 2.066 2.045 2.066h.511c3.196 0 5.624.663 5.624 3.188 0 2.474-1.585 3.724-4.039 3.724-1.099 0-2.351-.281-3.272-.664-.894-.382-1.482-.05-1.763.562-.307.688-.026 1.326.664 1.606 1.15.51 2.914.791 4.371.791 4.09 0 6.34-2.193 6.34-5.458z"
      aria-label="5" />
    <path style="line-height:1.1;;text-align:center"
      d="M194.063 151.709c-1.968 0-3.655-.816-3.655-3.596 0-2.168 1.33-3.953 3.655-3.953 2.25 0 3.655 1.683 3.655 3.723 0 2.653-1.482 3.826-3.655 3.826zm1.84-16.654c-4.37 1.504-7.795 5.56-7.795 11.757 0 5.585 2.428 7.192 5.98 7.192 3.273 0 5.93-2.117 5.93-6.197 0-3.392-2.274-5.943-5.213-5.943-2.122 0-3.477.97-4.397 2.576a8.833 8.833 0 012.25-4.616c1.175-1.275 2.683-2.27 4.32-2.806.74-.28.868-.918.536-1.53-.383-.688-.895-.714-1.61-.433z"
      aria-label="6" />
    <path style="line-height:1.1;;text-align:center"
      d="M191.507 102.432c-.102.28-.179.56-.179.765 0 .535.384.79 1.1.79.69 0 1.073-.255 1.277-.765l6.11-15.379a2.77 2.77 0 00.178-.994c0-1.122-.613-1.735-1.84-1.735h-8.87c-.792 0-1.15.357-1.15 1.148 0 .79.358 1.148 1.15 1.148h7.234c.716 0 .87.357.64.943z"
      aria-label="7" />
    <path style="line-height:1.1;;text-align:center"
      d="M194.063 57.559c3.553 0 5.981-2.219 5.981-5.356 0-2.448-1.457-4.285-3.706-4.693v-.076c1.943-.434 3.195-2.066 3.195-4.183 0-2.78-2.198-4.82-5.47-4.82-3.271 0-5.47 2.04-5.47 4.82 0 2.117 1.253 3.75 3.195 4.183v.076c-2.249.408-3.706 2.245-3.706 4.693 0 3.137 2.428 5.356 5.981 5.356zm0-2.296c-2.172 0-3.68-1.326-3.68-3.29 0-1.963 1.508-3.34 3.68-3.34 2.173 0 3.681 1.377 3.681 3.34 0 1.964-1.508 3.29-3.68 3.29zm0-8.926c-1.917 0-3.17-1.046-3.17-2.78 0-1.76 1.253-2.83 3.17-2.83s3.17 1.07 3.17 2.83c0 1.734-1.253 2.78-3.17 2.78z"
      aria-label="8" />
  </g>
  <path style="-inkscape-stroke:none"
    d="M180.59 92.581v.512l-43.047.078.059 22.748-29.7 51.451h13.18l-.023 25.156 59.844-.008v-1l-58.85.008-.027-24.156h32.527v16.264l22.033-.022V144.77h4.942v-.625h-.875l.375-.375h-5.44l-.002 38.843h-20.092V167.37h12.756l-29.707-51.451.018-21.75 43.03-.078v-1.51zm-42.517 24.408l28.546 49.44h-57.084z"
    color="#000" />
  <path
    d="M125.683 144.771c0 2.934 1.188 5.53 4.312 5.53.895 0 1.936-.103 2.523-.69.777-.777-.205-1.584-.865-1.041-.352.279-1.056.41-1.599.41-2.303 0-3.05-2.331-3.05-4.209 0-2.185.953-4.15 2.947-4.15.866 0 1.408.366 1.658.733.278.396.616.41.894.25.28-.162.382-.455.206-.925-.279-.704-1.042-1.378-2.684-1.378-3.124 0-4.342 2.493-4.342 5.47zm14.036.514v4.356c0 .454.206.66.66.66.455 0 .66-.206.66-.66v-9.68c0-.455-.205-.66-.66-.66-.454 0-.66.205-.66.66v4.004h-3.432v-4.004c0-.455-.205-.66-.66-.66-.454 0-.66.205-.66.66v9.68c0 .454.206.66.66.66.455 0 .66-.206.66-.66v-4.356zm4.68 4.869h5.22c.455 0 .66-.205.66-.66 0-.455-.205-.66-.66-.66h-3.769c-.337 0-.352-.161-.25-.264l2.597-2.757c.982-1.056 1.804-2.318 1.804-3.535 0-2.347-1.526-2.977-3.359-2.977-1.115 0-1.848.161-2.479.616-.293.22-.425.586-.249.894.19.338.572.528.924.308.484-.293.983-.498 1.76-.498 1.173 0 2.083.454 2.083 1.818 0 .983-.968 2.039-1.599 2.699l-3.256 3.373c-.22.22-.308.484-.308.792 0 .572.308.851.88.851z"
    style="line-height:1.1;;text-align:center" aria-label="CH2"
    paint-order="stroke markers fill" />
  <path
    d="M121.566 163.85c.454 0 .66-.204.66-.66v-2.126h2.126c.455 0 .66-.205.66-.66 0-.454-.205-.66-.66-.66h-2.126v-2.126c0-.455-.206-.66-.66-.66-.455 0-.66.205-.66.66v2.126h-2.127c-.455 0-.66.206-.66.66 0 .455.205.66.66.66h2.127v2.127c0 .455.205.66.66.66z"
    style="line-height:1.1;;text-align:center" aria-label="+"
    paint-order="stroke markers fill" />
  <path
    d="M152.373 161.064h5.28c.455 0 .66-.205.66-.66 0-.454-.205-.66-.66-.66h-5.28c-.454 0-.66.206-.66.66 0 .455.206.66.66.66z"
    style="line-height:1.1;;text-align:center" aria-label="-"
    paint-order="stroke markers fill" />
  <g>
    <path style="-inkscape-stroke:none"
      d="M48.659 54.765v1h46.324v13.3l-29.7 51.452h13.182v15.627H57.278v-41.25h-8.75v1h7.75l-.001 41.25h23.145l-.015-16.627h32.527v11.252h-.031v13.25h-63v1h64v-14.25h-.026v-11.252h12.756L95.924 69.065l-.004-14.3zm46.794 15.37L124 119.576H66.916z"
      color="#000" />
    <path
      d="M83.065 97.918c0 2.933 1.188 5.53 4.312 5.53.894 0 1.936-.104 2.522-.69.778-.778-.205-1.584-.865-1.042-.352.28-1.056.411-1.599.411-2.302 0-3.05-2.332-3.05-4.21 0-2.185.953-4.15 2.948-4.15.865 0 1.408.367 1.657.733.279.396.616.411.895.25.278-.162.381-.455.205-.924-.279-.704-1.041-1.379-2.684-1.379-3.124 0-4.341 2.493-4.341 5.47zm14.036.513v4.356c0 .455.205.66.66.66.454 0 .66-.205.66-.66v-9.68c0-.455-.206-.66-.66-.66-.455 0-.66.205-.66.66v4.004h-3.432v-4.004c0-.455-.206-.66-.66-.66-.455 0-.66.205-.66.66v9.68c0 .455.205.66.66.66.454 0 .66-.205.66-.66v-4.356zm4.517 4.87h5.573c.455 0 .66-.206.66-.66 0-.455-.205-.66-.66-.66h-1.862v-8.36c0-.807-.367-1.174-1.174-1.174-.425 0-.762.088-1.1.367l-1.613 1.261c-.22.176-.337.396-.337.821 0 .734.293.924 1.012.352l1.437-1.144c.293-.249.455-.205.455.22v7.656h-2.39c-.456 0-.66.206-.66.66 0 .455.204.66.66.66z"
      style="line-height:1.1;;text-align:center" aria-label="CH1"
      paint-order="stroke markers fill" />
    <path
      d="M76.307 114.21h5.28c.455 0 .66-.205.66-.66 0-.454-.205-.66-.66-.66h-5.28c-.455 0-.66.206-.66.66 0 .455.205.66.66.66z"
      style="line-height:1.1;;text-align:center" aria-label="-"
      paint-order="stroke markers fill" />
    <path
      d="M112.395 116.997c.454 0 .66-.205.66-.66v-2.126h2.126c.455 0 .66-.206.66-.66 0-.455-.205-.66-.66-.66h-2.126v-2.127c0-.455-.206-.66-.66-.66-.455 0-.66.205-.66.66v2.127h-2.127c-.455 0-.66.205-.66.66 0 .454.205.66.66.66h2.127v2.126c0 .455.205.66.66.66z"
      style="line-height:1.1;;text-align:center" aria-label="+"
      paint-order="stroke markers fill" />
  </g>
  <path
    d="M151.32 56.715c.24.853.8 1.28 1.68 1.28.934 0 1.44-.427 1.68-1.28l4.614-17.334c.187-.72.027-1.386-1.013-1.386-.72 0-1.2.32-1.387.933l-3.493 13.867c-.213.826-.587.826-.8 0l-3.493-13.867c-.187-.613-.667-.933-1.387-.933-1.04 0-1.2.666-1.013 1.386zm17.681-1.52c.827 0 1.2-.374 1.2-1.2v-3.867h3.867c.826 0 1.2-.373 1.2-1.2s-.374-1.2-1.2-1.2H170.2v-3.867c0-.826-.373-1.2-1.2-1.2s-1.2.374-1.2 1.2v3.867h-3.867c-.826 0-1.2.373-1.2 1.2s.374 1.2 1.2 1.2h3.867v3.867c0 .826.373 1.2 1.2 1.2z"
    style="line-height:1.1;;text-align:center" aria-label="V+"
    paint-order="stroke markers fill" />
  <path
    d="M60.82 200.853c.24.854.8 1.28 1.68 1.28.934 0 1.44-.426 1.68-1.28l4.614-17.333c.187-.72.027-1.387-1.013-1.387-.72 0-1.2.32-1.387.934l-3.493 13.866c-.213.827-.587.827-.8 0l-3.493-13.866c-.187-.614-.667-.934-1.387-.934-1.04 0-1.2.667-1.013 1.387zm12.88-6.586h9.601c.827 0 1.2-.374 1.2-1.2 0-.827-.373-1.2-1.2-1.2h-9.6c-.827 0-1.2.373-1.2 1.2 0 .826.373 1.2 1.2 1.2z"
    style="line-height:1.1;;text-align:center" aria-label="V-"
    paint-order="stroke markers fill" />
</svg>